<svg id="mySvg" xmlns="http://www.w3.org/2000/svg" width="500" height="400"><g><path id="21035615732885682" d="M 309 199 C 322 216 322 216 335 233" stroke="black" fill="none"></path><path id="35668787393244217" d="M 293 192 C 271 162 261 173 227 158" stroke="black" fill="none"></path><path id="695240720840046" d="M 307 182 C 285 153 299 146 296 109" stroke="black" fill="none"></path><path id="8115488465217666" d="M 337 250 C 359 279 339 287 337 323" stroke="black" fill="none"></path><path id="5415966457745554" d="M 351 240 C 369 264 376 257 403 270" stroke="black" fill="none"></path></g><g><circle id="11844172594792979" r="5" stroke="black" fill="black" cx="227" cy="158"></circle><circle id="4247183868271309" r="5" stroke="black" fill="white" cx="296" cy="109"></circle><circle id="6643786045786884" r="5" stroke="black" fill="black" cx="337" cy="323"></circle><circle id="09045859518658816" r="5" stroke="black" fill="black" cx="403" cy="270"></circle><polygon points="309,199 293,192 307,182" cx="303" cy="191" fill="black" stroke="black" id="2707950439425857"></polygon><polygon points="335,233 351,240 337,250" cx="341" cy="241" fill="white" stroke="black" id="9158343285641566"></polygon></g></svg>