<svg id="mySvg" xmlns="http://www.w3.org/2000/svg" width="900" height="700"><g><path id="1376686860195162" d="M 219 433 C 148 447 152 408 86 378" stroke="black" fill="none"></path><path id="937636628566968" d="M 223 450 C 158 463 164 482 109 518" stroke="black" fill="none"></path><path id="8645316429450445" d="M 345 425 C 290 424 290 428 236 439" stroke="black" fill="none"></path><path id="643147689137318" d="M 116 213 C 109 207 121 194 128 200" stroke="black" fill="none"></path><path id="574359868582804" d="M 345 407 C 203 403 238 313 133 217" stroke="black" fill="none"></path><path id="4648553585442421" d="M 527 543 C 566 614 607 560 683 587" stroke="black" fill="none"></path><path id="4839116643546837" d="M 667 507 C 707 496 739 597 700 583" stroke="black" fill="none"></path><path id="3851495109643819" d="M 542 534 C 569 583 596 517 650 503" stroke="black" fill="none"></path><path id="7770299344544742" d="M 473 428 C 528 429 500 476 527 525" stroke="black" fill="none"></path><path id="8581204845360286" d="M 650 381 C 758 353 799 637 694 600" stroke="red" fill="none"></path><path id="45833288072681455" d="M 646 364 C 708 348 724 474 663 490" stroke="red" fill="none"></path><path id="060385302432643506" d="M 473 410 C 555 412 554 396 633 376" stroke="red" fill="none"></path><path id="24101534838558347" d="M 360 416 C 409 417 409 418 458 419" stroke="black" fill="none"></path></g><g><circle id="39364047745688757" r="5" stroke="black" fill="black" cx="109" cy="518"></circle><polygon points="360,416 345,425 345,407" cx="350" cy="416" fill="white" stroke="black" id="6237191356103047"></polygon><polygon points="236,439 223,450 219,433" cx="226" cy="441" fill="white" stroke="black" id="2693799226932856"></polygon><circle id="5379642654088166" r="5" stroke="black" fill="white" cx="86" cy="378"></circle><polygon points="133,217 116,213 128,200" cx="126" cy="210" fill="white" stroke="black" id="7532259762863156"></polygon><polygon points="458,419 473,410 473,428" cx="468" cy="419" fill="white" stroke="black" id="8693411243754383"></polygon><polygon points="527,525 542,534 527,543" cx="532" cy="534" fill="black" stroke="black" id="20724345698595803"></polygon><polygon points="683,587 700,583 694,600" cx="692" cy="590" fill="white" stroke="black" id="17717146315670318"></polygon><polygon points="650,503 663,490 667,507" cx="660" cy="500" fill="white" stroke="black" id="38130699492655884"></polygon><polygon points="633,376 646,364 650,381" cx="643" cy="374" fill="red" stroke="black" id="8915070954996331"></polygon></g></svg>